<svg width="146" height="162" viewBox="0 0 146 162" fill="none" xmlns="http://www.w3.org/2000/svg">
<path d="M19.9576 65.585C20.1866 64.9753 20.1866 64.3275 19.9576 63.7177C20.0721 61.9266 20.1484 60.1736 20.2629 58.3825C20.6445 58.3444 21.0261 58.3444 21.4077 58.3063C28.9252 58.4587 36.4046 58.4587 43.9221 58.3063C44.3037 58.3063 44.6853 58.3063 45.0669 58.3063C52.5462 58.3444 60.0256 58.4206 67.4668 58.4206C76.1291 58.4206 84.8296 58.3444 93.4919 58.3444C95.5525 58.3444 97.575 58.3444 99.6356 58.3444C102.803 58.4968 106.008 58.5349 109.176 58.3444C110.053 58.3444 110.969 58.3444 111.847 58.3444C111.961 58.3444 112.076 58.3444 112.228 58.3444C113.869 58.3444 115.548 58.3444 117.189 58.3444C117.304 58.3444 117.418 58.3444 117.571 58.3444C118.22 58.3444 118.868 58.3444 119.517 58.3444C120.242 58.8398 120.013 59.602 120.013 60.2498C120.051 61.7742 120.051 63.2985 120.051 64.8229C120.051 65.5469 120.204 66.0424 121.158 65.8137C124.821 64.8991 128.446 65.1658 132.11 65.8899C132.568 66.2329 133.064 66.3853 133.636 66.3472C135.353 67.2999 137.147 68.024 138.75 69.2054C142.489 71.9873 144.512 75.7982 145.885 80.1045C145.924 80.3712 146 80.5999 146.038 80.8666C145.771 84.2202 146.382 87.5738 145.657 90.8892C144.397 96.6436 141.268 101.331 137.338 105.561L137.376 105.523C137.223 105.675 137.109 105.79 136.956 105.942L136.994 105.904C135.506 107.085 133.98 108.229 132.491 109.41C132.339 109.486 132.224 109.601 132.072 109.677C131.881 109.791 131.652 109.944 131.461 110.058L131.347 110.096C131.156 110.21 130.927 110.325 130.736 110.439C130.278 110.515 129.858 110.63 129.706 111.163C129.095 110.934 128.637 111.392 128.103 111.62C123.104 113.716 117.952 114.478 112.648 113.145C111.58 112.878 110.893 113.068 110.206 113.945C101.505 125.492 89.9812 132.161 75.5949 133.99C75.2133 134.028 74.8317 134.104 74.4882 134.181C73.9921 134.219 73.4961 134.219 72.9618 134.257C72.1986 134.143 71.4354 134.143 70.6722 134.333C69.909 134.295 69.1458 134.181 68.3826 134.181C59.9493 133.952 52.0502 131.78 44.8761 127.397C29.4213 117.984 21.1406 104.227 20.2248 86.1256C19.9958 81.3239 20.0721 76.4841 19.9958 71.6824C19.9958 71.4157 19.9958 71.187 19.9958 70.9203C20.2248 70.0057 20.2248 69.1292 19.9958 68.2145C19.9958 67.9859 19.9958 67.7191 19.9958 67.4905C20.1866 66.8426 20.1103 66.2329 19.9576 65.585ZM137.528 85.554C137.834 78.1228 131.804 72.94 124.134 74.0071C119.937 74.6168 119.937 74.6168 120.013 78.8088C120.166 87.0021 119.593 95.0431 116.426 102.741C115.472 105.028 115.586 105.18 118.067 105.066C127.988 104.723 137.147 95.5766 137.528 85.554ZM43.3879 90.3938C43.426 86.2018 45.334 83.6867 48.8829 83.1531C52.3173 82.6577 54.4924 83.7629 56.0951 86.964C56.782 88.2978 57.9268 87.6881 58.7282 87.5738C59.644 87.4213 58.919 86.5067 58.7282 86.0113C57.9268 83.6867 56.4004 82.0099 54.0345 81.0953C50.3711 79.7234 45.5248 80.5999 43.1971 83.115C40.4495 86.0494 39.6482 91.6133 41.4417 95.4241C43.0444 98.8539 46.5933 100.797 50.829 100.607C54.7214 100.416 57.8886 98.168 58.9571 94.7763C59.1098 94.319 59.6058 93.5187 58.7282 93.4044C57.736 93.2901 56.4386 92.7184 56.0188 94.5095C55.7135 95.7671 54.7214 96.6055 53.5002 97.1771C48.0815 99.6161 43.3497 96.4531 43.3879 90.3938ZM71.7025 98.0155C71.8552 98.3585 72.0841 98.5491 72.0841 98.7777C72.046 100.112 72.771 100.34 73.9158 100.264C75.3659 100.15 74.7553 99.0445 74.7935 98.3966C74.8698 94.8906 74.8317 91.4227 74.8317 87.9167C74.8317 86.2018 74.1448 85.7064 72.5421 86.1637C71.2828 86.5067 72.3894 87.7643 71.6262 88.4121C71.3591 88.1454 71.1301 87.8405 70.863 87.6119C67.7721 84.6775 63.3455 85.7826 62.0481 89.8222C61.2849 92.1849 61.323 94.5858 62.0481 96.9485C62.6968 99.0064 64.1087 100.264 66.2838 100.531C68.4971 100.797 70.2906 99.9591 71.7025 98.0155ZM94.3314 93.4425C95.7815 93.4425 97.2316 93.4425 98.7198 93.4425C99.2922 93.4425 99.9409 93.5187 99.8646 92.6041C99.6356 90.5462 99.1014 88.6408 97.2697 87.3451C94.6748 85.5159 90.9352 85.7064 88.6456 87.8024C86.356 89.8984 85.8217 94.3571 87.4626 97.3296C88.7982 99.6923 90.9352 100.607 93.4919 100.607C95.9341 100.607 97.9566 99.6923 99.1777 97.482C99.483 96.9485 99.9791 96.2244 99.5593 95.729C99.1014 95.1574 98.2619 95.5004 97.575 95.5004C96.8881 95.5004 96.8881 96.1863 96.621 96.5674C95.5144 98.1299 93.988 98.3966 92.2326 98.0917C90.5917 97.7869 89.7904 96.6436 89.3706 95.1574C89.0653 94.0522 89.2561 93.3282 90.7062 93.4806C91.9273 93.5568 93.1484 93.4425 94.3314 93.4425ZM78.6095 94.1284C78.6095 95.729 78.6477 97.2915 78.6095 98.892C78.5713 99.921 78.8766 100.34 79.9833 100.302C81.0136 100.264 81.4715 100.073 81.4333 98.9301C81.357 96.2625 81.3952 93.5949 81.3952 90.9273C81.3952 88.2978 81.3952 88.2597 84.0282 88.0692C84.8296 88.0311 85.1348 87.8024 85.1348 86.964C85.1348 86.0875 84.6388 86.0875 84.0282 86.0875C83.7611 86.0875 83.494 86.0494 83.265 86.0875C81.7005 86.3543 81.357 85.5921 81.3189 84.1821C81.2807 82.6196 82.0439 82.391 83.3032 82.5434C83.7229 82.5815 84.1808 82.5434 84.6388 82.5053C85.3638 82.4672 85.3638 81.9337 85.3638 81.4002C85.3638 80.9047 85.3638 80.4474 84.6769 80.2569C80.8991 79.1898 78.6858 80.7523 78.6095 84.6394C78.6095 85.6302 78.4569 86.24 77.2739 86.1256C76.587 86.0494 76.4344 86.5067 76.4725 87.1165C76.5107 87.5738 76.5107 88.1454 77.1213 88.0692C78.9529 87.8405 78.6095 89.0981 78.6095 90.127C78.6095 91.4608 78.6095 92.7946 78.6095 94.1284Z" fill="#D7D2CB"/>
<path d="M67.7721 48.2456C65.2154 43.5201 66.4365 38.8709 68.2682 34.2978C69.1077 32.1637 70.1762 30.1059 71.55 28.2766C75.7094 22.7509 77.77 16.5773 77.8464 9.6796C77.8464 8.68878 78.0372 7.65984 78.228 6.66902C78.8767 3.65843 81.2807 2.89626 83.6085 4.95413C85.7073 6.82145 87.0429 9.2223 87.9587 11.8137C91.2023 21.036 91.355 30.3345 88.4548 39.6711C88.3022 40.1665 88.2259 40.662 88.1114 41.1574C87.8061 41.3479 87.6916 41.6147 87.7298 41.9577L87.7679 41.9195C87.4627 42.1101 87.3482 42.3769 87.3863 42.7198C87.0047 43.4058 86.6231 44.1298 86.2415 44.8158C85.7836 45.1207 85.5165 45.578 85.3257 46.0734C85.2112 46.1496 85.1731 46.2258 85.1349 46.3783C83.7611 47.7883 82.3874 49.1602 80.7847 50.3035C80.5939 50.4178 80.4031 50.5321 80.2123 50.6464C78.8003 51.0656 77.4266 51.4848 76.0147 51.904C75.7476 51.904 75.5186 51.904 75.2515 51.904C73.8777 51.5992 72.4658 51.2943 71.092 50.9894C70.8249 50.837 70.596 50.6845 70.3288 50.494C69.4512 49.7318 68.6116 49.0078 67.7721 48.2456Z" fill="#D7D2CB"/>
<path d="M0.0763069 133.914C7.44118 133.876 14.8061 133.609 22.1709 134.219C22.7433 134.257 23.2776 134.409 23.85 134.524C26.483 135.057 28.6963 136.086 29.4213 138.982C30.1845 142.107 28.8871 144.394 26.483 146.185C26.1014 146.223 25.758 146.337 25.6053 146.718C24.6895 146.909 23.85 147.214 23.0104 147.747C24.2316 147.938 25.3 148.09 26.4067 148.243C26.6738 148.243 26.9028 148.281 27.1699 148.281C29.5358 149.272 31.3675 150.682 31.2148 153.578C31.024 156.817 29.6121 159.18 26.4067 160.323C23.0486 161.505 19.576 161.428 16.1035 161.657C15.3403 161.657 14.5771 161.657 13.8139 161.657C9.50182 161.657 5.15158 161.657 0.839506 161.657C0.572386 161.619 0.381587 161.581 0.152627 161.581C0.114467 160.819 0.0763069 160.095 0.038147 159.332C0.038147 159.066 0.038147 158.837 0.0763069 158.57C0.534226 156.284 0.457907 153.997 0.305267 151.711C0.457907 151.063 0.496066 150.453 0.343427 149.805C0.534226 148.776 0.534226 147.785 0.343427 146.757C0.343427 146.49 0.343427 146.261 0.343427 145.994C0.572386 142.184 0.381587 138.373 0.038147 134.562C0.038147 134.333 0.0763069 134.143 0.0763069 133.914ZM14.0047 154.721C15.7601 154.683 17.5536 154.759 19.3089 154.454C20.4537 154.264 21.484 153.997 21.4459 152.587C21.4077 151.253 20.3774 151.025 19.3471 150.872C16.2561 150.377 13.1652 150.758 10.0742 150.606C9.50182 150.567 9.15838 150.758 9.00574 151.406C8.43334 153.845 9.12022 154.721 11.5625 154.721C12.3638 154.759 13.1652 154.721 14.0047 154.721ZM14.2337 144.47C15.5693 144.356 17.3628 144.661 19.1181 144.165C20.034 143.898 20.759 143.441 20.6827 142.336C20.6064 141.269 19.7668 141.116 18.9273 140.964C16.218 140.43 13.5086 140.85 10.7993 140.659C9.12022 140.507 8.96758 141.383 8.92942 142.717C8.89126 144.089 9.34918 144.699 10.7993 144.508C11.7533 144.394 12.7836 144.47 14.2337 144.47Z" fill="#D7D2CB"/>
<path d="M76.0527 140.316C77.6555 140.659 79.3345 140.659 80.899 141.269C84.3334 142.565 86.4322 145.347 86.623 149.043C86.6994 150.834 86.6612 152.587 86.7375 154.378C86.8138 155.674 86.6612 156.932 87.9586 157.96C88.76 158.608 88.2258 160.018 88.0731 161.009C87.9205 161.924 86.9283 161.505 86.2796 161.657C85.9743 161.733 85.6309 161.695 85.3256 161.695C79.945 161.886 79.4108 161.466 78.037 156.246C76.7015 158.799 75.0987 160.819 72.2367 161.428C70.2143 161.848 68.1918 161.886 66.2075 161.352C63.3836 160.59 61.9335 158.646 61.8954 155.826C61.8954 153.235 63.2691 151.482 66.0167 150.606C66.7417 150.377 67.4667 150.186 68.4589 149.881C67.3904 148.967 66.4746 148.319 65.3679 147.9C65.1771 147.747 65.0245 147.519 64.8337 147.404C62.8112 146.185 62.8494 146.223 64.4903 144.546C67.6957 141.269 71.7025 140.354 76.0527 140.316ZM72.3131 155.56C74.1066 155.598 75.7093 155.064 77.083 153.997C77.6936 153.502 78.5331 152.74 78.1515 151.977C77.7318 151.215 76.9304 152.13 76.2817 152.168C75.7856 152.206 75.2895 152.397 74.7935 152.473C73.6105 152.701 72.4275 152.892 71.2446 153.159C70.5577 153.311 69.8327 153.73 69.9471 154.569C70.0616 155.407 70.7485 155.598 71.5499 155.598C71.817 155.56 72.0841 155.56 72.3131 155.56ZM70.4051 149.424C72.4657 149.424 74.5645 149.462 76.6633 149.424C77.3883 149.424 78.0752 149.081 78.1134 148.243C78.1515 147.671 77.6555 147.366 77.1975 147.214C75.1751 146.414 71.7788 147.557 70.4051 149.424Z" fill="#D7D2CB"/>
<path d="M99.254 146.147C99.6738 145.308 99.9409 144.737 100.246 144.203C101.925 141.078 104.749 139.821 108.222 140.621C111.503 141.345 113.564 143.822 113.678 147.252C113.831 151.634 113.831 156.017 113.946 160.399C113.984 161.39 113.678 161.581 112.801 161.543C110.816 161.505 108.87 161.505 106.886 161.543C105.818 161.581 105.436 161.276 105.512 160.133C105.665 157.465 105.703 154.797 105.741 152.13C105.779 149.119 104.787 147.557 102.917 147.442C101.009 147.328 99.5974 149.234 99.5211 152.13C99.4448 154.683 99.4066 157.198 99.5593 159.752C99.6738 161.238 99.1777 161.619 97.8039 161.543C95.8578 161.428 93.8734 161.466 91.8891 161.543C90.8207 161.581 90.439 161.276 90.5154 160.133C90.9351 154.188 90.9733 148.205 90.5154 142.26C90.439 141.04 90.7062 140.545 92.0799 140.697C93.5682 140.85 95.1327 140.812 96.6591 140.697C97.8802 140.621 98.3763 141.04 98.4908 142.222C98.6053 143.479 98.9487 144.661 99.254 146.147Z" fill="#D7D2CB"/>
<path d="M34.4203 154.378C34.3058 152.625 33.9624 150.91 34.2676 149.119C34.9927 144.965 37.5875 141.993 41.747 141.04C46.6315 139.897 51.4014 140.126 55.7898 142.908C58.1176 144.927 59.415 147.404 59.5295 150.529C59.5677 151.673 59.2242 152.054 58.0413 152.054C53.3476 151.977 48.6539 152.016 43.9603 152.054C43.4642 152.054 42.701 151.711 42.472 152.435C42.2812 153.006 42.701 153.54 43.0444 153.997C44.6471 156.322 48.8447 156.665 51.4396 154.531C52.3173 153.807 52.9278 153.692 53.92 154.188C55.2938 154.836 56.7438 155.331 58.1939 155.788C59.1098 156.093 59.2242 156.474 58.69 157.275C57.5834 158.837 56.1714 159.942 54.4161 160.666C50.0659 162.457 45.6011 162.457 41.1746 161.2C37.6257 160.171 35.5269 157.694 34.4203 154.378ZM47.2802 145.994C45.7919 146.223 44.2274 146.375 43.1207 147.709C42.472 148.471 42.5865 148.967 43.6931 148.967C45.9446 148.967 48.2342 148.967 50.4856 148.967C51.5923 148.967 51.4015 148.395 50.9817 147.785C50.0659 146.528 48.7684 146.147 47.2802 145.994Z" fill="#D7D2CB"/>
<path d="M141.192 143.708C141.154 143.822 141.154 143.936 141.192 144.051C140.009 145.27 138.788 146.452 137.605 147.671L137.529 147.747C136.803 148.128 136.193 147.671 135.544 147.442C132.987 146.49 130.393 145.537 127.607 146.337C126.767 146.604 125.775 146.985 126.004 148.128C126.233 149.348 127.302 149.157 128.179 149.081C131.652 148.738 135.124 148.586 138.559 149.5C138.711 149.843 138.979 149.92 139.322 149.92C140.238 150.682 141.001 151.596 141.573 152.625C141.497 152.74 141.535 152.816 141.612 152.854C141.612 153.883 141.612 154.874 141.612 155.903C140.276 159.942 137.032 161.124 133.255 161.657C127.912 162.457 122.951 161.428 118.181 158.989C117.151 158.456 117.075 158.037 117.762 157.198C118.563 156.207 119.212 155.14 119.937 154.112C120.624 153.121 121.311 153.235 122.303 153.769C124.669 155.064 127.263 155.712 129.973 155.56C131.308 155.483 132.987 155.56 132.873 153.692C132.759 151.939 131.118 152.435 130.011 152.473C127.225 152.549 124.478 153.121 121.692 152.397C118.449 151.558 116.96 149.234 117.647 145.994C117.952 144.546 119.021 143.632 119.937 142.603C121.387 141.993 122.875 141.383 124.325 140.773C129.362 140.088 134.323 140.354 139.093 142.298C139.742 142.755 140.467 143.251 141.192 143.708Z" fill="#D7D2CB"/>
<path d="M57.6597 47.7502L57.5452 47.6359H57.3926C56.8965 47.2167 56.4004 46.7975 55.8662 46.3783C55.7135 45.9972 55.5227 45.6923 55.103 45.6161V45.578C48.1197 33.7643 47.9671 21.5314 52.9278 9.03176C54.0345 6.28794 55.9425 4.03953 58.3084 2.24842C61.8954 -0.495406 66.2838 -0.762167 69.909 1.44814C73 3.35357 74.3356 7.16444 73.5342 11.5469C72.771 15.8913 71.1302 19.8546 68.5353 23.3606C64.4522 28.9626 62.1626 35.1362 62.2007 42.1482C62.2007 43.0247 62.0481 43.9393 61.8954 44.7777C61.3994 47.4453 60.2927 48.2075 57.6597 47.7502Z" fill="#D7D2CB"/>
<path d="M71.7789 93.4425C71.7407 96.1863 70.8249 97.7488 69.0314 98.0536C66.3983 98.5109 64.9483 97.4439 64.414 94.7763C64.3759 94.5095 64.2995 94.2809 64.2995 94.0141C63.8798 90.8892 65.2917 88.7551 67.8484 88.5646C70.3288 88.3359 71.817 90.1651 71.7789 93.4425Z" fill="#D7D2CB"/>
<path d="M92.9957 92.1087C92.3089 92.1087 91.5838 92.1087 90.8969 92.1087C89.1416 92.0706 88.989 91.8419 89.7903 90.3176C90.6298 88.7932 91.9654 88.2978 93.6445 88.4121C95.2472 88.5265 96.163 89.4792 96.7354 90.8511C97.117 91.7657 96.8499 92.1468 95.8577 92.1087C94.9037 92.0706 93.9497 92.1087 92.9957 92.1087Z" fill="#D7D2CB"/>
</svg>
